<!DOCTYPE svg PUBLIC "-//W3C//DTD SVG 1.1//EN" "http://www.w3.org/Graphics/SVG/1.1/DTD/svg11.dtd">
<!-- Uploaded to: SVG Repo, www.svgrepo.com, Transformed by: SVG Repo Mixer Tools -->
<svg version="1.0" id="Layer_1" xmlns="http://www.w3.org/2000/svg" xmlns:xlink="http://www.w3.org/1999/xlink" width="800px" height="800px" viewBox="-6.4 -6.4 76.80 76.80" enable-background="new 0 0 64 64" xml:space="preserve" fill="#777e8d" stroke="#777e8d" transform="matrix(1, 0, 0, 1, 0, 0)rotate(0)" stroke-width="0.00064">
<g id="SVGRepo_bgCarrier" stroke-width="0"/>
<g id="SVGRepo_tracerCarrier" stroke-linecap="round" stroke-linejoin="round" stroke="#CCCCCC" stroke-width="1.536"> <g> <path fill="#667084" d="M60,52H4c-2.211,0-4,1.789-4,4s1.789,4,4,4h56c2.211,0,4-1.789,4-4S62.211,52,60,52z"/> <path fill="#667084" d="M60,8c0-2.211-1.789-4-4-4H8C5.789,4,4,5.789,4,8v40h56V8z"/> </g> </g>
<g id="SVGRepo_iconCarrier"> <g> <path fill="#667084" d="M60,52H4c-2.211,0-4,1.789-4,4s1.789,4,4,4h56c2.211,0,4-1.789,4-4S62.211,52,60,52z"/> <path fill="#667084" d="M60,8c0-2.211-1.789-4-4-4H8C5.789,4,4,5.789,4,8v40h56V8z"/> </g> </g>
</svg>